<?xml version="1.0" standalone="no"?>
<!DOCTYPE svg PUBLIC "-//W3C//DTD SVG 20010904//EN"
 "http://www.w3.org/TR/2001/REC-SVG-20010904/DTD/svg10.dtd">
<svg version="1.0" xmlns="http://www.w3.org/2000/svg"
 width="600.000000pt" height="600.000000pt" viewBox="0 0 600.000000 600.000000"
 preserveAspectRatio="xMidYMid meet">
<metadata>
Created by potrace 1.11, written by Peter Selinger 2001-2013
</metadata>
<g transform="translate(0.000000,600.000000) scale(0.100000,-0.100000)"
fill="#000000" stroke="none">
<path d="M862 4833 c2 -5 16 -35 31 -68 52 -112 122 -249 148 -289 14 -23 41
-66 60 -96 54 -87 179 -238 265 -321 174 -166 329 -264 634 -402 77 -34 331
-119 480 -160 248 -69 401 -100 665 -137 447 -63 559 -91 715 -177 78 -44 174
-140 214 -216 l29 -55 -21 -27 c-24 -31 -30 -93 -10 -113 7 -7 40 -12 80 -12
37 0 68 -3 68 -7 0 -5 -11 -42 -24 -83 l-24 -75 -289 1 c-246 1 -764 25 -828
38 -11 3 -37 5 -58 5 -30 1 -39 6 -46 24 -5 13 -16 28 -24 35 -20 17 -64 5
-78 -19 -13 -25 -63 -25 -239 1 -555 79 -680 183 -385 321 44 20 139 55 210
77 72 22 146 45 165 51 86 26 -246 -5 -480 -46 -180 -31 -290 -63 -399 -114
-58 -27 -97 -39 -128 -39 -49 0 -97 -21 -107 -45 -10 -26 -7 -80 5 -92 8 -8 7
-17 -2 -34 -16 -30 -16 -172 0 -213 10 -26 10 -27 -6 -20 -10 5 -47 9 -83 9
-106 -1 -218 -64 -291 -163 -21 -29 -41 -43 -73 -52 -63 -17 -123 -71 -132
-117 -9 -50 10 -99 87 -216 35 -53 73 -111 84 -129 11 -18 44 -48 73 -68 29
-19 80 -66 113 -103 34 -37 63 -66 66 -64 2 3 -10 31 -27 63 -16 32 -30 64
-30 70 0 7 15 15 33 18 49 9 122 59 158 108 36 50 48 76 99 213 52 140 56 139
167 -24 139 -204 283 -428 283 -440 0 -7 -36 -11 -102 -11 -167 -1 -470 -27
-637 -56 -250 -42 -426 -108 -494 -184 -33 -35 -37 -46 -37 -91 0 -35 7 -63
21 -85 46 -75 205 -194 349 -261 25 -12 83 -39 130 -61 268 -126 819 -278
1255 -346 55 -9 114 -19 130 -21 98 -18 439 -46 610 -52 202 -6 535 10 565 28
9 5 -55 9 -160 9 -578 1 -1290 119 -1795 298 -347 123 -528 272 -447 367 44
53 189 115 267 115 20 0 45 5 57 11 29 16 203 36 418 50 l189 11 53 -44 c220
-184 546 -342 813 -394 121 -24 379 -24 487 0 223 48 439 154 613 300 131 110
237 225 373 406 37 50 150 237 197 328 l48 92 52 0 c37 0 60 6 77 20 25 19 26
19 43 0 14 -16 31 -20 80 -20 73 0 102 17 111 66 8 44 -22 74 -76 74 -22 0
-40 1 -40 3 0 2 20 63 45 137 50 147 51 183 9 202 -20 10 -29 8 -54 -11 -31
-23 -50 -21 -50 5 0 8 -3 13 -7 12 -5 -1 -24 2 -43 6 -114 24 -240 -133 -240
-298 0 -35 7 -86 16 -114 l16 -50 -41 -60 c-109 -161 -320 -392 -466 -512
-214 -175 -458 -292 -720 -346 -118 -24 -337 -15 -466 19 -292 76 -533 237
-779 517 -70 80 -270 355 -270 372 0 2 33 2 74 0 70 -3 74 -2 95 24 25 32 27
76 5 98 -9 9 -32 16 -55 16 -22 0 -39 5 -39 11 0 6 18 70 40 142 22 71 39 136
38 143 -2 7 -1 14 2 15 13 5 140 -13 140 -21 0 -4 -11 -38 -25 -74 -30 -79
-31 -97 -7 -126 27 -33 66 -21 91 28 l19 37 16 -37 c37 -88 10 -128 -87 -128
-72 0 -93 -11 -106 -56 -19 -69 31 -100 144 -91 74 5 115 25 152 74 25 33 28
45 28 113 0 69 -4 83 -42 162 -24 48 -43 88 -43 90 0 2 30 1 67 -2 63 -5 68
-7 71 -30 5 -33 20 -50 44 -50 22 0 23 5 -28 -140 -59 -164 -46 -202 73 -213
110 -11 153 12 153 82 0 41 -24 61 -71 61 -48 0 -49 6 -11 120 l29 85 43 6
c30 4 50 14 65 32 18 24 63 40 53 20 -42 -83 -52 -115 -56 -189 -4 -66 -1 -89
16 -127 33 -74 63 -87 209 -87 119 0 122 0 142 26 25 32 27 76 5 98 -12 12
-37 16 -109 16 -101 0 -145 11 -145 35 0 12 15 15 80 15 77 0 82 1 117 34 36
33 38 37 41 109 l4 74 142 7 c77 3 188 9 246 12 l105 6 -55 -40 c-73 -53 -124
-125 -166 -233 -18 -46 -30 -289 -14 -289 4 0 10 -9 13 -21 4 -16 3 -18 -8 -9
-9 7 -178 10 -555 10 -372 -1 -546 2 -553 9 -17 17 -27 13 -20 -6 5 -15 4 -16
-8 -7 -24 19 -71 26 -80 13 -4 -6 -14 -9 -23 -6 -13 5 -12 11 10 34 l26 28
-28 3 c-16 2 -30 -1 -32 -7 -7 -20 -32 -12 -44 14 -11 24 -28 34 -28 17 0 -16
116 -149 225 -257 206 -206 406 -326 660 -396 65 -18 115 -23 262 -27 171 -4
188 -2 290 23 164 40 299 97 441 189 133 85 314 250 417 381 22 28 44 53 49
57 6 4 8 10 4 13 -3 3 -29 -18 -57 -47 -33 -33 -51 -46 -51 -36 0 9 5 20 10
23 6 3 10 12 10 18 0 7 -11 0 -24 -15 -12 -15 -26 -24 -30 -21 -4 4 -4 -1 0
-11 5 -14 3 -17 -7 -14 -8 3 -13 13 -13 22 2 23 -23 20 -31 -4 -3 -11 -11 -20
-17 -20 -5 0 -8 7 -4 15 3 8 1 15 -5 15 -5 0 -12 -7 -15 -15 -5 -11 -10 -13
-19 -5 -7 6 -24 8 -38 5 -15 -4 -35 -1 -49 8 -18 11 -43 13 -114 8 -71 -5 -90
-3 -87 6 3 7 8 13 12 13 4 0 8 6 8 13 1 6 24 77 51 157 28 80 69 206 92 280
23 74 45 139 49 143 8 8 343 57 393 57 15 0 29 3 31 8 3 4 -87 5 -200 4 -178
-3 -205 -2 -200 11 3 8 15 47 27 86 11 39 24 71 28 71 4 1 35 2 70 4 78 3 107
26 107 86 0 22 -6 45 -13 52 -8 8 -46 14 -92 17 -70 3 -99 12 -71 23 9 4 53
71 93 146 15 28 41 76 56 105 16 28 37 75 47 102 10 28 21 55 25 60 3 6 12 30
19 55 7 25 18 59 23 75 5 17 11 80 15 140 8 166 -16 253 -106 372 -104 139
-305 248 -586 316 -278 69 -486 87 -1025 93 -480 4 -545 7 -777 34 -280 32
-469 71 -703 145 -165 51 -388 150 -528 234 -54 32 -66 37 -60 24z m838 -603
c77 -23 334 -70 461 -85 74 -9 166 -20 204 -25 67 -9 604 -50 900 -70 685 -45
998 -154 1108 -384 72 -149 62 -409 -29 -733 -6 -21 -12 -23 -85 -23 -44 0
-79 2 -79 5 0 3 11 41 24 83 53 167 61 211 61 363 l0 146 -35 69 c-77 155
-237 252 -517 313 -104 22 -363 53 -648 76 -333 27 -639 63 -724 84 -20 5 -63
12 -96 16 -144 15 -605 142 -605 166 0 12 17 11 60 -1z m248 -1661 c57 -10 64
-14 47 -23 -11 -6 -37 -28 -58 -50 -21 -21 -39 -37 -41 -35 -8 11 -46 110 -46
119 0 7 7 10 15 6 8 -3 46 -11 83 -17z m212 -51 c0 -13 -23 -5 -28 10 -2 7 2
10 12 6 9 -3 16 -11 16 -16z m1980 -22 c0 -20 -140 -406 -165 -457 -51 -101
-122 -141 -181 -102 -37 24 -54 65 -54 132 0 133 77 241 198 275 32 9 68 16
81 16 51 0 87 72 61 121 -10 17 -7 19 25 19 19 0 35 -2 35 -4z m-2617 -93 c-9
-26 -14 -28 -64 -30 -48 -1 -50 -1 -19 7 39 9 70 42 71 74 l0 21 11 -22 c7
-14 7 -31 1 -50z m571 11 c21 -20 21 -23 -10 -115 -36 -108 -45 -113 -83 -47
-17 29 -31 59 -31 66 0 37 64 112 96 112 7 0 20 -7 28 -16z m1130 -17 c15 -24
-15 -47 -61 -47 -41 0 -44 20 -6 50 30 24 51 23 67 -3z m1776 -74 c-23 -43
-46 -82 -51 -87 -16 -18 -9 48 10 90 17 38 68 90 79 80 2 -3 -15 -40 -38 -83z
m85 57 c7 -21 -27 -139 -51 -177 -18 -28 -60 -32 -49 -5 3 9 23 59 42 110 20
50 39 92 44 92 4 0 11 -9 14 -20z m-3640 -212 c-13 -44 -66 -153 -90 -184 -45
-59 -135 -70 -135 -16 0 87 58 168 143 201 71 27 90 27 82 -1z m920 -228 c3
-5 -1 -10 -9 -10 -9 0 -16 5 -16 10 0 6 4 10 9 10 6 0 13 -4 16 -10z m69 -46
c9 -3 16 -11 16 -17 0 -8 -3 -8 -11 0 -16 16 -39 5 -33 -15 5 -15 4 -14 -6 1
-18 28 -1 44 34 31z m2016 -38 c0 -3 -4 -8 -10 -11 -5 -3 -10 -1 -10 4 0 6 5
11 10 11 6 0 10 -2 10 -4z"/>
<path d="M4583 2533 c-12 -2 -44 -24 -71 -48 -67 -60 -94 -125 -100 -235 -5
-101 13 -151 67 -187 30 -20 46 -23 142 -23 59 0 119 4 132 9 33 13 51 65 34
100 -12 25 -16 26 -118 31 -100 5 -139 16 -139 41 0 5 33 9 74 9 92 0 120 10
147 52 16 27 19 46 17 105 -3 60 -7 76 -28 99 -42 45 -91 60 -157 47z m71
-146 c15 -24 -15 -47 -61 -47 -41 0 -44 20 -6 50 30 24 51 23 67 -3z"/>
<path d="M2310 1996 c0 -9 5 -16 10 -16 6 0 10 4 10 9 0 6 -4 13 -10 16 -5 3
-10 -1 -10 -9z"/>
<path d="M4625 2000 c-3 -5 -1 -10 4 -10 6 0 11 5 11 10 0 6 -2 10 -4 10 -3 0
-8 -4 -11 -10z"/>
<path d="M4545 1960 c4 -6 11 -8 16 -5 14 9 11 15 -7 15 -8 0 -12 -5 -9 -10z"/>
</g>
</svg>
